<?xml version="1.0" encoding="UTF-8"?>
<svg id="Layer_1" xmlns="http://www.w3.org/2000/svg" version="1.1" viewBox="0 0 965.2 147.6">
  <!-- Generator: Adobe Illustrator 29.3.1, SVG Export Plug-In . SVG Version: 2.1.0 Build 151)  -->
  <defs>
    <style>
      .st0 {
        fill: #72846f;
      }
    </style>
  </defs>
  <path class="st0" d="M42.1,38.2h-.3c-16.2,0-25.9,11.9-25.9,11.9V0H0v79.7c0,29.3,21.3,41.4,41.4,41.4s41.4-17,41.4-41.4-12.6-41.2-40.6-41.5ZM41.4,106.7c-15,0-26.1-12.1-26.1-27s11.1-27,26.1-27,25.4,11.9,25.4,27-10.3,27-25.4,27Z"/>
  <path class="st0" d="M131.2,38.2c-22.7,0-40.9,18.6-40.9,41.4s18.1,41.4,40.9,41.4,30.7-10,38.3-18.2l-10.8-10.8c-4.3,5.9-14.8,14.4-27.5,14.4s-23.2-9.9-25-22.6c12.6-.2,25.1-.2,37.7-.2s18,0,27.5.2c.2-1.6.2-2.6.2-4.1,0-22.8-17.7-41.4-40.4-41.4ZM107.2,70.7c3.2-10.5,12.2-17,24-17s20.5,6.5,23.5,17h-47.6Z"/>
  <path class="st0" d="M303.2,38.2c-22.7,0-41.4,18.6-41.4,41.4s18.6,41.4,41.4,41.4,41.4-18.6,41.4-41.4-18.6-41.4-41.4-41.4ZM303.2,106.2c-15,0-25.1-11.6-25.1-26.7s10.2-26.7,25.1-26.7,24.8,11.8,24.8,26.7-9.7,26.7-24.8,26.7Z"/>
  <path class="st0" d="M390.4,38c-24.3,0-38.2,17-38.2,37.2v43.9h15.1v-39.3c0-18.3,7.5-28,21.5-28s22.4,9.9,22.4,27.8v39.4h15.9v-43.9c0-35.3-27.5-37.2-36.7-37.2Z"/>
  <path class="st0" d="M238.3,78.5c0,18.4-8.1,28.4-22.4,28.4s-21.5-9.9-21.5-28.6v-40.1h-15.1v44.8c0,20.6,13.8,38,38.2,38s36.7-1.9,36.7-38v-44.8h-15.9v40.3Z"/>
  <path class="st0" d="M501.6,50.1s-8.6-11.9-27.2-11.9h-.3c-26.7.2-39.3,18.8-39.3,41.5s16.5,41.4,41.4,41.4,41.4-12.1,41.4-41.4V0h-15.9v50.1ZM476.2,106.7c-15,0-25.4-12.1-25.4-27s10.5-27,25.4-27,26.1,11.9,26.1,27-11,27-26.1,27Z"/>
  <path class="st0" d="M242,121h-.1c-2.3,0-4.5,1.1-5.9,2.9-4.3,5.6-10.9,9-19.2,9s-14.9-3.5-19.4-9.1c-1.4-1.8-3.6-2.8-5.8-2.8-6.4,0-10,7.6-5.8,12.5,7.6,8.6,18.7,14.1,31,14.1s23.4-5.5,31-14.1c4.2-4.8.6-12.5-5.8-12.5Z"/>
  <path class="st0" d="M570.6,82.3c-2.4-1.3-4.9-2.5-7.4-3.6-3.2-1.4-6.2-2.9-8.7-4.6-2.6-1.6-2.9-3.4-2.9-4.7s.5-2.6,1.6-3.8c1.1-1.1,3.1-1.8,5.9-1.8s4.5.5,5.1.9c1.4.9,2.1,1.5,2.6,2.1,1.3,1.4,2.5,2,3.7,2s2.7-.4,4.2-2c1.2-1.3,1.9-2.8,1.9-4.2s-.7-4.7-4.3-6.5c-4.9-2.5-13-2.4-19.4.6-3.4,1.6-6.3,3.7-8.4,6.4-2.3,2.8-3.5,6-3.5,9.6s.9,5.8,2.6,7.9c1.6,2,3.6,3.6,6.1,4.8,2.2,1.1,4.5,2.1,6.9,3.1,3.3,1.3,6.4,2.8,9,4.5,2.1,1.4,3,3.3,3,6s-.9,4.2-2.8,5.9c-2,1.8-5.1,2.7-9.1,2.7s-5.1-.4-6.7-1.1c-1.5-.7-2.7-1.6-3.5-2.6-.9-1.2-1.6-2.2-2.2-3.1-2.6-4.4-6.2-4-9.3-1.2-1.7,1.5-2.5,3.2-2.5,5.2s1,4.4,3.1,6.5c1.8,1.8,4.2,3.4,7.2,4.6,3,1.2,6.4,1.8,10.2,1.8s9.4-1,13.4-2.9c4.1-1.9,7.4-4.6,9.8-7.9,2.6-3.4,3.8-7.3,3.8-11.4s-1-6-2.9-8.2c-1.7-2-3.9-3.7-6.5-5Z"/>
  <path class="st0" d="M737.5,43.2c1.5,0,3.1-.8,5-2.5,1.9-1.8,2.9-3.7,2.9-5.7s-.7-3.3-2.2-5.4c-1.6-2.2-3.7-3.3-6.2-3.3s-3.1.8-4.9,2.4c-1.9,1.7-2.9,3.7-2.9,5.8s.7,3.2,2.2,5.3c1.6,2.2,3.7,3.4,6.2,3.4Z"/>
  <path class="st0" d="M939.4,80.1c-3.1-.9-6.5-1.6-10.1-2.1-2.6-.4-5-.9-7.4-1.4-2.1-.5-3.7-1.3-4.9-2.4-.6-.5-1.4-1.5-1.4-3.8s.8-3.8,2.5-4.7c4.8-2.6,9.8-2.1,12.2-.5,1.6,1.1,2.9,2.1,4,3.1.7.6,1.4,1.2,1.9,1.6,2.3,1.7,5.1,1.2,7.4-.9,1.5-1.4,2.3-3.1,2.3-5.2s-1.6-3.8-2.8-4.8c-1.5-1.3-3.5-2.4-6-3.4-2.5-.9-5.4-1.4-8.6-1.4-5.6,0-10.3,1.3-14,3.8-3.7,2.5-6.6,6.6-8.4,11.9-.4,1-1,2.5-1.9,4.6-.9,2.1-2.2,5-4,8.7,0,0,0,0,0,0,0,0,0,0,0,0-4.2,9-9.3,16.1-15.3,21.3-5.8,5-13.5,7.6-23,7.6s-10.8-1.6-14.1-4.7c-3.3-3.1-4.8-7.4-4.8-13.1s.1-2.8.3-4.1c1.2,1.4,3.1,2.2,3.9,2.5,2.5,1,5.7,1.5,9.4,1.5s9.6-.8,13.8-2.3c4.3-1.5,7.8-3.8,10.5-6.7,2.8-3.1,4.3-6.8,4.3-11s-1.5-7.5-4.5-10.2c-2.9-2.5-7-3.8-12.2-3.8s-12.3,1.9-17.8,5.7c-5.4,3.7-10.4,9.5-14.7,17.3,0,0,0,0,0,0,0,0,0,0,0,0-2.1,4.3-4.7,8.4-7.7,12-3,3.6-6.4,6.5-10.2,8.7-3.7,2.1-7.9,3.2-12.5,3.2s-10.3-2.2-13.7-6.8c-3.4-4.6-6-10.7-7.7-18.2,2.6-4.6,5.4-9.7,8.4-15.3,3.1-5.9,6.1-11.9,8.9-17.9,2.8-6,5.1-11.8,6.9-17.2,1.8-5.6,2.8-10.6,2.8-14.8,0-14.1-6.3-17.1-11.7-17.1s-9.5,2.5-14.2,7.5c-4.5,4.8-8.2,11.7-11,20.5-2.8,8.8-4.3,19.5-4.3,31.8s.7,16.9,2.1,23.9c-2.1,4.2-4.3,8.1-6.8,11.7-2.5,3.6-5.2,6.5-7.9,8.6-2.6,2-5.2,2.9-7.9,2.9s-3.1-.4-4.2-1.2c-1-.8-1.9-2.5-2.5-4.9-.8-2.8-1.3-6.9-1.6-12.2-.3-5.4-.5-12.6-.5-21.3s-4.2-10.7-6.7-10.7-6.4,1.5-9.2,4.5c-2.6,2.7-5.1,6.1-7.4,10.1-2.2,3.9-4.3,7.9-6.3,12,0,0,0,0,0,0-3.1,6.5-6.7,11.8-10.9,15.5-6.7,6-12.4,7-15.5,3-1.5-1.9-2.7-4.4-3.6-7.5-1-3.3-2-6.7-2.8-10.3-.9-3.7-1.8-7.2-2.8-10.5-1.1-3.5-2.5-6.5-4.3-8.8-2.1-2.7-4.8-4.1-8.1-4.1s-7.1,1.5-9.6,4.6c-2.2,2.7-4,6-5.4,9.8-1.3,3.6-2.5,7.1-3.4,10.5-.7,2.8-1.5,5.1-2.1,7.1-.3.9-.6,1.3-.6,1.4-.4-.1-.9-.8-1.4-2.3-.9-2.5-1.7-5.6-2.4-9.1-.7-3.3-1.5-6.7-2.6-10-1.1-3.5-2.5-6.5-4.2-8.9-2-2.7-4.8-4.2-8.1-4.2s-6.8,1.7-9,5c-1.9,2.9-3.3,6.5-4.3,10.6-.9,3.9-1.7,7.8-2.4,11.7-.7,4-1.4,7.4-2.1,10.3-.4,1.8-1,2.7-1.1,2.8,0,0-.4-.4-1-2.1-.7-2.3-1.2-5.2-1.6-8.7-.4-3.6-.7-7.3-.8-11.1-.2-3.8-.3-7.1-.4-10,0-2.9,0-4.7,0-5.3,0-1.8,0-2.9-.3-3.7-.4-1.5-1.6-2.5-3.1-2.5-2.1,0-4.1,1.4-5.9,4.1-1.7,2.5-2.5,5.6-2.5,9.3s0,4.5.2,7.9c.1,3.4.4,7,.9,10.8.4,3.9,1.1,7.7,1.9,11.1.9,3.7,2,6.7,3.4,9.1,2.1,3.6,4.8,4.4,6.7,4.4,3.3,0,6.1-1.7,8-4.8,1.6-2.7,2.9-6,3.8-10,.9-3.8,1.6-7.6,2.2-11.4.6-3.1,1.1-6,1.7-8.8.5-2.5,1.2-4.5,2-5.9.7-1.3,1.2-1.3,1.4-1.3.4,0,1.7,0,2.9,3.4,1.1,3.2,2.2,6.8,3.1,10.9.7,3.1,1.5,6.2,2.3,9.1.9,3.2,2.2,5.8,3.6,7.9,1.7,2.5,4.1,3.8,6.8,3.8s5.9-1.1,8.2-6.3c1.5-3.4,3-7.7,4.5-12.9.8-2.7,1.7-5.3,2.6-7.8.8-2.3,1.8-4.1,2.8-5.6,1-1.3,1.8-1.5,2.3-1.5s2.3,0,3.7,3.8c1.3,3.5,2.4,7.5,3.3,12.1.9,4.1,1.9,8.2,3.2,12.2,1.3,4.3,3.2,7.9,5.5,10.7,2.6,3.1,6,4.7,10.3,4.7s11-2.5,16.6-7.4c5.4-4.8,10.5-12,15-21.5,0,0,0,0,0,0,3-6.1,5.7-11,8.2-14.5,1.9-2.7,3.1-3.8,3.7-4.2,0,.4,0,1,0,1.8,0,9.2.2,16.9.7,22.9.4,6.3,1.2,11,2.3,14.6,1.2,3.8,3,6.6,5.2,8.3,2.2,1.7,5,2.5,8.3,2.5,6.5,0,12.6-3,18.1-8.8,3.9-4,7.5-9.2,11-15.3,2.6,7.3,6.1,13.3,10.4,17.4,5.1,4.9,11.2,7.4,18.1,7.4s16.3-3.1,22.8-9.1c2.3-2.2,4.5-4.7,6.6-7.4.9,5.8,3.4,10.5,7.6,13.9,5.1,4.1,12,6.2,20.4,6.2s14.5-1.5,20.1-4.6c5.6-3,10.5-7.3,14.7-12.7,4.1-5.3,7.8-11.5,11.1-18.5,0,0,0-.1,0-.2,0,0,0,0,0-.1.8-1.6,1.5-3.3,2.3-5,.7,1,1.5,1.9,2.5,2.7,2.1,1.7,4.7,3,7.7,3.7,2.7.7,5.5,1.3,8.3,1.8,2.8.5,5.5,1,7.8,1.7,2,.5,3.7,1.4,4.8,2.6,1,1,1.5,2.5,1.5,4.7s-1.1,4.5-3.5,6.2c-2.6,1.9-6,2.8-10,2.8s-5.7-.5-7.6-1.4c-1.9-.9-3.4-2-4.4-3.2-1.2-1.4-2.2-2.7-2.9-3.7-.5-.9-1-1.6-1.5-2.2-1.1-1.4-2.3-1.7-3.1-1.7-1.4,0-2.7.7-4.1,2.2-1.4,1.5-2.1,2.9-2.1,4.4,0,2.5,1.1,5,3.2,7.5,1.9,2.3,4.6,4.2,8,5.7,3.3,1.5,7.3,2.2,11.6,2.2s9.1-.9,13-2.8c3.9-1.9,7.1-4.5,9.5-7.7,2.4-3.4,3.7-7.2,3.7-11.4s-1.2-8.3-3.5-10.8c-2.2-2.3-5-4-8.4-5ZM854.6,73.4c3.5-2.3,7.4-3.4,11.6-3.4s4.4.6,5.7,1.8c1.2,1.1,1.8,2.4,1.8,4.1,0,2.8-1,4.9-3.1,6.4-2.4,1.7-5.6,2.6-9.5,2.6s-4-.2-5.2-.5c-1.2-.3-2.2-.8-3.1-1.4-1.6-1-3.1-1.5-4.6-1.5s-1.2.1-1.7.3c2-3.5,4.8-6.3,8.1-8.5ZM781.9,66.1c-.3-3.8-.4-7.8-.4-11.9,0-10.5.9-19.1,2.6-25.5,1.7-6.3,3.8-10.8,6.2-13.6,2.2-2.5,4.3-3.8,6.3-3.8s1.9.4,2.4,1.4c.7,1.4,1.1,3.4,1.1,6.1,0,4.9-1.1,10.6-3.1,17.1-2.1,6.6-4.9,13.4-8.1,20.4-2.2,4.7-4.4,9.3-6.6,13.7-.1-1.3-.2-2.6-.3-3.9Z"/>
  <path class="st0" d="M961.5,110.2c0-.9-.6-2-2.4-2h-2.6v6.9h1.3v-2.6h.8l1.6,2.6h1.5l-1.7-2.8c1.1-.3,1.4-1.2,1.4-2ZM959.2,111.3h-1.3v-2.2h1.3c.8,0,1.1.4,1.1,1s-.3,1.1-1.1,1.1Z"/>
  <path class="st0" d="M958.9,105.2c-3.5,0-6.3,2.8-6.3,6.3s2.8,6.3,6.3,6.3,6.3-2.8,6.3-6.3-2.8-6.3-6.3-6.3ZM958.9,116.8c-2.9,0-5.3-2.3-5.3-5.3s2.4-5.3,5.3-5.3,5.3,2.4,5.3,5.3-2.3,5.3-5.3,5.3Z"/>
</svg>