<?xml version="1.0" encoding="UTF-8"?>
<svg version="1.1" xmlns="http://www.w3.org/2000/svg" width="1080" height="1080">
<path d="M0 0 C356.4 0 712.8 0 1080 0 C1080 356.4 1080 712.8 1080 1080 C723.6 1080 367.2 1080 0 1080 C0 723.6 0 367.2 0 0 Z " fill="#FEFEFE" transform="translate(0,0)"/>
<path d="M0 0 C6.82010564 5.22482191 11.97688685 11.67066691 17.35546875 18.31640625 C35.14730979 39.92078466 64.35076211 56.84542389 91.48828125 62.90625 C92.54660156 63.17695313 93.60492188 63.44765625 94.6953125 63.7265625 C108.84654075 67.25153592 122.840353 68.3495739 137.36328125 68.34375 C138.5711731 68.34485275 138.5711731 68.34485275 139.8034668 68.34597778 C154.15722243 68.31177686 167.62730103 66.82829671 181.48828125 62.90625 C182.42043457 62.64392578 183.35258789 62.38160156 184.31298828 62.11132812 C215.23691271 53.12976693 243.16733718 35.15643636 262.86328125 9.40625 C269.93079866 0.22152371 280.4496379 -6.67698129 291.94140625 -8.81640625 C300.54591085 -9.75339985 309.19775017 -9.73095733 317.48828125 -7.09375 C318.28621094 -6.84882813 319.08414062 -6.60390625 319.90625 -6.3515625 C333.80579229 -1.48133528 342.47944501 9.08870646 349.0078125 21.78515625 C354.4167706 33.1882104 353.8943241 46.11855923 349.734375 57.921875 C345.571576 67.89171336 338.9433648 75.25294143 331.48828125 82.90625 C330.93011719 83.48487793 330.37195313 84.06350586 329.796875 84.65966797 C322.42050818 92.28562662 314.88905059 99.40012226 306.48828125 105.90625 C305.50730469 106.69257812 304.52632812 107.47890625 303.515625 108.2890625 C267.58763685 136.88020104 222.97522144 156.46638606 177.48828125 162.90625 C176.27922119 163.08663818 175.07016113 163.26702637 173.82446289 163.45288086 C161.22431545 165.21307348 148.63125382 165.34632663 135.92578125 165.34375 C134.80499176 165.3448175 133.68420227 165.34588501 132.52944946 165.34698486 C105.93363446 165.31052922 80.92819627 161.94415377 55.48828125 153.90625 C54.69728027 153.66745117 53.9062793 153.42865234 53.09130859 153.18261719 C21.73447697 143.64456468 -8.23608971 126.57376045 -33.51171875 105.90625 C-34.09646973 105.43574219 -34.6812207 104.96523438 -35.28369141 104.48046875 C-43.08430369 98.17784033 -50.31232306 91.32197963 -57.44921875 84.28125 C-58.24247559 83.50571777 -59.03573242 82.73018555 -59.85302734 81.93115234 C-66.60744827 75.16816888 -72.5798732 67.87888415 -76.38671875 59.03125 C-76.77601563 58.14695312 -77.1653125 57.26265625 -77.56640625 56.3515625 C-81.87639587 45.2025811 -80.51426798 31.87460938 -76.0625 21.02734375 C-73.67917228 16.23067159 -70.92783478 12.02633788 -67.51171875 7.90625 C-66.98964844 7.27203125 -66.46757812 6.6378125 -65.9296875 5.984375 C-48.66773336 -12.99957457 -20.44940177 -13.96833232 0 0 Z " fill="#72846F" transform="translate(403.51171875,419.09375)"/>
<path d="M0 0 C2.625 0.25 2.625 0.25 4.25 1.53515625 C6.20810028 3.97721882 6.27001449 6.26034317 6.1796875 9.31640625 C4.66921819 17.30487423 0.53407264 25.10990814 -3.6171875 32.04296875 C-5.65442485 35.10715709 -5.65442485 35.10715709 -5.25 38.4375 C-4.47766457 40.92000674 -3.7587553 43.05227099 -2.375 45.25 C1.27536371 47.07518185 5.79586066 46.83603493 9.63671875 45.60546875 C12.46292075 43.67876523 13.7734151 41.27296326 15.5625 38.375 C18.56696272 33.51290726 21.43257987 29.84621006 26.625 27.25 C33.6218652 26.79858934 33.6218652 26.79858934 37.125 28.375 C38.625 30.25 38.625 30.25 39.1875 33.125 C38.45115963 37.21577982 36.7686967 38.63025275 33.625 41.25 C31.12360398 42.50069801 29.35107309 42.38302467 26.5625 42.375 C25.21478516 42.37886719 25.21478516 42.37886719 23.83984375 42.3828125 C21.625 42.25 21.625 42.25 20.625 41.25 C20.89156572 44.18443402 20.89156572 44.18443402 21.625 47.25 C25.36242202 49.74161468 28.3011891 49.75238565 32.625 49.25 C38.57933011 47.34461437 41.47158049 43.40494226 44.625 38.25 C46.19811459 35.12333693 47.70153345 31.98315982 49.1328125 28.7890625 C50.76209039 26.01673101 51.61370085 25.23646007 54.625 24.25 C58.45808969 23.90775985 60.74667697 23.70949352 64.0625 25.75 C64.578125 26.245 65.09375 26.74 65.625 27.25 C65.295 28.57 64.965 29.89 64.625 31.25 C60.995 30.92 57.365 30.59 53.625 30.25 C53.625 31.24 53.625 32.23 53.625 33.25 C54.37265625 33.34796875 55.1203125 33.4459375 55.890625 33.546875 C63.87006218 34.75841258 63.87006218 34.75841258 67.3125 37 C69.09166277 40.04999333 69.19331137 41.76909287 68.625 45.25 C66.47446639 48.62940996 64.50176675 51.06543238 60.625 52.25 C56.32086306 52.59159817 53.67650446 52.67507627 49.6875 51.0625 C47.19246278 48.86989153 46.88906316 47.50677898 46.625 44.25 C48.605 43.26 48.605 43.26 50.625 42.25 C51.305625 43.095625 51.98625 43.94125 52.6875 44.8125 C55.47916667 47.6875 55.47916667 47.6875 59.4375 47.0625 C60.489375 46.794375 61.54125 46.52625 62.625 46.25 C62.955 44.6 63.285 42.95 63.625 41.25 C62.50351562 41.06824219 62.50351562 41.06824219 61.359375 40.8828125 C60.37453125 40.71523438 59.3896875 40.54765625 58.375 40.375 C57.40046875 40.21257813 56.4259375 40.05015625 55.421875 39.8828125 C52.85235883 39.30144152 50.90428944 38.54159735 48.625 37.25 C48.439375 38.075 48.25375 38.9 48.0625 39.75 C45.45457309 46.09973509 40.82506925 51.22333898 34.625 54.25 C29.38634547 55.03262537 23.60557534 55.39416565 19 52.4375 C16.625 50.25 16.625 50.25 14.625 47.25 C13.8825 47.86875 13.14 48.4875 12.375 49.125 C8.81411926 51.87658966 6.78713623 53.07458321 2.3125 53.75 C-2.51551296 53.09535417 -5.31980443 51.01289624 -8.375 47.25 C-9.0703125 45.046875 -9.0703125 45.046875 -9.375 43.25 C-10.096875 43.9925 -10.81875 44.735 -11.5625 45.5 C-18.33789674 52.12483236 -18.33789674 52.12483236 -23 52.6875 C-26.375 52.25 -26.375 52.25 -28.25 50.9375 C-30.78440235 47.13589647 -30.68652666 42.96893359 -30.9375 38.5625 C-30.98068359 37.86060547 -31.02386719 37.15871094 -31.06835938 36.43554688 C-31.1741736 34.70724794 -31.27506581 32.9786489 -31.375 31.25 C-31.89449219 32.20261719 -32.41398438 33.15523437 -32.94921875 34.13671875 C-33.65320366 35.40389159 -34.35765572 36.67080498 -35.0625 37.9375 C-35.40216797 38.56333984 -35.74183594 39.18917969 -36.09179688 39.83398438 C-38.71431033 44.51529344 -41.45829668 49.13840649 -46.69140625 51.1328125 C-52.63756921 51.77396398 -52.63756921 51.77396398 -55.75 49.5625 C-57.7685946 45.44767256 -58.67633833 41.37804109 -59.56640625 36.89453125 C-60.16721903 33.93099737 -60.16721903 33.93099737 -63.375 32.25 C-63.55675781 32.99765625 -63.73851562 33.7453125 -63.92578125 34.515625 C-64.17714844 35.50046875 -64.42851563 36.4853125 -64.6875 37.5 C-64.93113281 38.47453125 -65.17476562 39.4490625 -65.42578125 40.453125 C-66.37152356 43.23975665 -67.48208713 45.02304368 -69.375 47.25 C-71.6875 47.25 -71.6875 47.25 -74.375 46.25 C-76.33729693 42.84974459 -77.20438387 39.14099534 -77.9375 35.3125 C-78.081875 34.631875 -78.22625 33.95125 -78.375 33.25 C-79.035 32.92 -79.695 32.59 -80.375 32.25 C-80.49617187 33.14203125 -80.61734375 34.0340625 -80.7421875 34.953125 C-80.99355469 36.70882812 -80.99355469 36.70882812 -81.25 38.5 C-81.41242187 39.66015625 -81.57484375 40.8203125 -81.7421875 42.015625 C-82.2973136 44.85293619 -82.77016192 46.86566913 -84.375 49.25 C-87 50 -87 50 -89.375 50.25 C-93.53717431 45.18300518 -93.51619546 40.90459972 -93.4375 34.5 C-93.43298828 33.80261719 -93.42847656 33.10523438 -93.42382812 32.38671875 C-93.4121002 30.67444197 -93.39416653 28.96220967 -93.375 27.25 C-92.055 26.59 -90.735 25.93 -89.375 25.25 C-87.31577598 27.30922402 -87.96072421 31.46708124 -87.8125 34.3125 C-87.76931641 35.07111328 -87.72613281 35.82972656 -87.68164062 36.61132812 C-87.57526367 38.49065438 -87.47460066 40.37030244 -87.375 42.25 C-86.28063599 39.03048099 -85.2759964 35.86058586 -84.4375 32.5625 C-82.89096204 27.74094047 -82.89096204 27.74094047 -80.375 26.25 C-77.9375 26.0625 -77.9375 26.0625 -75.375 27.25 C-73.69871045 29.77591576 -72.55742273 32.46691769 -71.375 35.25 C-70.71666215 36.58746532 -70.05238774 37.9220813 -69.375 39.25 C-69.19324219 38.63511719 -69.01148438 38.02023437 -68.82421875 37.38671875 C-68.57285156 36.57847656 -68.32148437 35.77023437 -68.0625 34.9375 C-67.81886719 34.13699219 -67.57523438 33.33648438 -67.32421875 32.51171875 C-66.31674809 30.11120224 -65.4044028 28.86023144 -63.375 27.25 C-60.70137148 26.84895572 -59.13882706 26.71471962 -56.88671875 28.29296875 C-54.64919661 31.18960594 -53.75402935 34.48658479 -52.6875 37.9375 C-52.46255859 38.63939453 -52.23761719 39.34128906 -52.00585938 40.06445312 C-51.45403643 41.79036743 -50.91340942 43.51985433 -50.375 45.25 C-46.02097847 44.76621983 -44.15355642 43.61949684 -41.375 40.25 C-40.13392887 38.26161722 -38.94821471 36.23788428 -37.8125 34.1875 C-33.95671495 27.24021692 -33.95671495 27.24021692 -31.375 25.25 C-28.75 25.4375 -28.75 25.4375 -26.375 26.25 C-25.22845518 28.54308963 -25.17770883 30.04909656 -25.05859375 32.6015625 C-25.01669922 33.45234375 -24.97480469 34.303125 -24.93164062 35.1796875 C-24.89232422 36.06914063 -24.85300781 36.95859375 -24.8125 37.875 C-24.76931641 38.7721875 -24.72613281 39.669375 -24.68164062 40.59375 C-24.57543139 42.81234283 -24.47338806 45.0310488 -24.375 47.25 C-20.3338955 46.47286452 -17.92232606 45.79288348 -14.96875 42.86328125 C-12.31947642 36.85696247 -12.86269688 30.75319189 -12.88671875 24.27929688 C-12.77488135 16.18125212 -11.5426954 9.21282379 -5.6875 3.25 C-4.5428125 2.26 -4.5428125 2.26 -3.375 1.25 C-2.375 0.25 -2.375 0.25 0 0 Z " fill="#7A8B77" transform="translate(681.375,601.75)"/>
<path d="M0 0 C2.31 0 4.62 0 7 0 C7.07444911 5.56841139 7.12874318 11.13652964 7.16479492 16.70532227 C7.17983246 18.59762625 7.20026785 20.48989566 7.22631836 22.38208008 C7.26292399 25.11027586 7.2797769 27.83800871 7.29296875 30.56640625 C7.30845261 31.40522842 7.32393646 32.2440506 7.33988953 33.10829163 C7.341799 39.85233585 6.06810533 44.48473676 1.6875 49.8125 C-3.31053695 53.88066961 -8.2585803 54.46338246 -14.5390625 54.3125 C-19.8239461 53.64140367 -23.40586017 50.90081929 -26.875 46.9375 C-31.04468086 41.1735294 -30.60987974 34.87808816 -30 28 C-27.86526742 23.49334232 -25.08177871 20.8258468 -21 18 C-15.60749825 16.20249942 -10.18753896 16.23318074 -4.9375 18.5 C-3.968125 18.995 -2.99875 19.49 -2 20 C-2 20.66 -2 21.32 -2 22 C-1.34 22 -0.68 22 0 22 C0 14.74 0 7.48 0 0 Z " fill="#778975" transform="translate(549,602)"/>
<path d="M0 0 C2.31 0 4.62 0 7 0 C7.33 6.93 7.66 13.86 8 21 C9.98 19.68 11.96 18.36 14 17 C19.79313859 15.76509898 25.20175046 16.81720935 30.30859375 19.7265625 C34.17679467 22.63888006 36.07079412 26.36265476 37 31 C37.5391803 36.70286856 37.34061986 41.15071311 34 46 C29.25279889 51.11520119 24.7388966 53.73586478 17.6171875 54.1328125 C11.49733401 53.96437617 8.08433108 52.15852186 3.59375 48.08203125 C-0.4453435 42.80547037 -0.2727613 36.99635226 -0.1953125 30.6640625 C-0.1924826 29.78471039 -0.18965271 28.90535828 -0.18673706 27.99935913 C-0.17559712 25.20776406 -0.15050411 22.4164971 -0.125 19.625 C-0.1149622 17.72526507 -0.10583775 15.82552508 -0.09765625 13.92578125 C-0.07567806 9.28372893 -0.0411911 4.64191998 0 0 Z " fill="#758773" transform="translate(324,602)"/>
<path d="M0 0 C4.75582794 2.71625444 7.66973391 6.56531922 9.8125 11.5625 C10.99099337 17.42777084 10.09804342 22.6145234 7.15625 27.8046875 C4.18087266 31.69689622 0.41029672 34.02990109 -4.1875 35.5625 C-9.64275616 36.20740431 -13.97189859 35.8778703 -18.62109375 32.8359375 C-22.8374408 29.40818403 -26.65101263 24.93737983 -27.5234375 19.44921875 C-27.62339687 13.82150622 -26.7972262 9.95923046 -23.1875 5.5625 C-16.51446019 -1.15603781 -9.16748034 -3.87854937 0 0 Z " fill="#788975" transform="translate(468.1875,620.4375)"/>
<path d="M0 0 C3.97504259 2.76524702 7.48522616 5.74712424 9.875 10 C10.37 14.455 10.37 14.455 10.875 19 C1.305 19 -8.265 19 -18.125 19 C-15.94440167 25.84825895 -15.94440167 25.84825895 -12.125 28 C-7.37953351 28.79091108 -3.42254464 28.50294903 0.6875 25.9375 C3.875 24 3.875 24 6.3125 24.25 C6.828125 24.4975 7.34375 24.745 7.875 25 C8.37 26.98 8.37 26.98 8.875 29 C3.04802481 34.27202517 -1.91032693 36.52699121 -9.88671875 36.3125 C-15.0731214 35.58839492 -18.62644188 32.80263373 -22 28.9375 C-26.00508268 23.40106217 -25.7480565 17.61668451 -25.125 11 C-22.80526575 6.09286985 -19.40723069 3.1888952 -15.125 0 C-10.03212735 -1.69762422 -5.10928733 -1.63497195 0 0 Z " fill="#768773" transform="translate(390.125,620)"/>
<path d="M0 0 C2.31 0 4.62 0 7 0 C7.0093457 0.70084717 7.01869141 1.40169434 7.02832031 2.1237793 C7.08214544 5.31239025 7.16576936 8.49955333 7.25 11.6875 C7.26417969 12.79029297 7.27835937 13.89308594 7.29296875 15.02929688 C7.46555347 21.39488908 7.46555347 21.39488908 9.765625 27.234375 C12.96305143 29.76101267 14.93913496 29.64978522 18.875 29.4296875 C21.94692455 28.80852629 23.25087028 27.55081417 25 25 C25.9731681 22.0804957 26.1929546 19.94555049 26.31640625 16.89453125 C26.35830078 15.91162109 26.40019531 14.92871094 26.44335938 13.91601562 C26.48267578 12.89185547 26.52199219 11.86769531 26.5625 10.8125 C26.60568359 9.77673828 26.64886719 8.74097656 26.69335938 7.67382812 C26.79944366 5.1160181 26.90150146 2.55811155 27 0 C29.31 0 31.62 0 34 0 C34.08777806 4.16653186 34.14065272 8.33282276 34.1875 12.5 C34.21263672 13.67304687 34.23777344 14.84609375 34.26367188 16.0546875 C34.32011666 22.75280239 34.07182586 27.98523608 31 34 C25.48814806 37.67456796 19.48141896 37.82880214 13 37 C8.29692796 35.61259375 5.62252388 33.78214539 2.5625 29.9375 C0.39201817 25.85699417 -0.12177706 23.01586527 -0.09765625 18.45703125 C-0.09443359 17.38388672 -0.09121094 16.31074219 -0.08789062 15.20507812 C-0.07951172 14.08552734 -0.07113281 12.96597656 -0.0625 11.8125 C-0.05798828 10.68134766 -0.05347656 9.55019531 -0.04882812 8.38476562 C-0.03703498 5.58979073 -0.0205765 2.7949218 0 0 Z " fill="#788975" transform="translate(404,619)"/>
<path d="M0 0 C4.89004919 1.87752431 7.62249792 4.89733959 9.92578125 9.50390625 C10.0108833 11.46326665 10.03295781 13.42553419 10.0234375 15.38671875 C10.02021484 16.55332031 10.01699219 17.71992187 10.01367188 18.921875 C10.00110352 20.75685547 10.00110352 20.75685547 9.98828125 22.62890625 C9.98376953 23.85996094 9.97925781 25.09101562 9.97460938 26.359375 C9.96279455 29.40760017 9.94632153 32.45572939 9.92578125 35.50390625 C7.61578125 35.50390625 5.30578125 35.50390625 2.92578125 35.50390625 C2.90596191 34.83335205 2.88614258 34.16279785 2.86572266 33.47192383 C2.7701841 30.41970464 2.6606218 27.36814284 2.55078125 24.31640625 C2.51984375 23.26130859 2.48890625 22.20621094 2.45703125 21.11914062 C2.41835938 20.09755859 2.3796875 19.07597656 2.33984375 18.0234375 C2.2927124 16.61735229 2.2927124 16.61735229 2.24462891 15.18286133 C1.90222602 12.30599545 1.1972499 10.10176225 -0.07421875 7.50390625 C-1.79898786 6.54888467 -1.79898786 6.54888467 -4.07421875 6.50390625 C-5.22921875 6.40078125 -6.38421875 6.29765625 -7.57421875 6.19140625 C-11.10461362 6.19288792 -11.10461362 6.19288792 -13.44921875 8.31640625 C-15.95275365 11.68654938 -16.22559689 14.53082324 -16.390625 18.609375 C-16.43251953 19.59228516 -16.47441406 20.57519531 -16.51757812 21.58789062 C-16.55689453 22.61205078 -16.59621094 23.63621094 -16.63671875 24.69140625 C-16.70149414 26.24504883 -16.70149414 26.24504883 -16.76757812 27.83007812 C-16.87366241 30.38788815 -16.97572021 32.9457947 -17.07421875 35.50390625 C-19.05421875 35.50390625 -21.03421875 35.50390625 -23.07421875 35.50390625 C-23.16173288 31.6290499 -23.2147831 27.75444982 -23.26171875 23.87890625 C-23.28685547 22.78449219 -23.31199219 21.69007813 -23.33789062 20.5625 C-23.39817304 13.93143416 -23.28504799 8.94349686 -18.5390625 3.859375 C-12.51861921 -0.7444934 -7.52537261 -1.79985371 0 0 Z " fill="#748671" transform="translate(505.07421875,619.49609375)"/>
<path d="M0 0 C3.50252011 2.04313673 5.77361702 4.09787233 7 8 C7.480151 12.32135899 7.29173086 14.4668367 5.1875 18.3125 C2.90764489 21.11346485 1.33222077 22.78548988 -2.3046875 23.37109375 C-9.27022519 23.55105445 -9.27022519 23.55105445 -13.0625 20.6875 C-16.18974315 16.34971112 -16.58180918 12.22607543 -16 7 C-12.62152116 -0.40047745 -7.46556852 -0.97791792 0 0 Z " fill="#FBFCFB" transform="translate(542,626)"/>
<path d="M0 0 C3.47060168 2.06759249 5.77725393 4.10944433 7 8 C7.480151 12.32135899 7.29173086 14.4668367 5.1875 18.3125 C3.01107817 20.98638967 1.42651267 22.74186914 -2.05078125 23.37109375 C-6.27084768 23.49499898 -9.12711602 23.39887404 -12.5 20.6875 C-15.91445586 17.01695995 -16.39610487 14.04721005 -16.359375 9.0703125 C-15.71820971 5.3766429 -13.64068388 3.57781045 -11 1 C-7.53749757 -0.73125121 -3.78591771 -0.47815224 0 0 Z " fill="#FCFDFC" transform="translate(347,626)"/>
<path d="M0 0 C3.47060168 2.06759249 5.77725393 4.10944433 7 8 C7.480151 12.32135899 7.29173086 14.4668367 5.1875 18.3125 C2.99854341 21.00178952 1.42821517 22.76998782 -2.0859375 23.3359375 C-6.21467052 23.40639369 -8.41215089 23.3674057 -12 21.125 C-15.65867139 17.23766165 -15.32678029 13.86667294 -15.29296875 8.70703125 C-14.90428228 5.11556825 -13.68553733 3.36959176 -11 1 C-7.53749757 -0.73125121 -3.78591771 -0.47815224 0 0 Z " fill="#FCFCFC" transform="translate(464,626)"/>
<path d="M0 0 C0.99 0.66 1.98 1.32 3 2 C2.67 3.32 2.34 4.64 2 6 C-1.3 5.67 -4.6 5.34 -8 5 C-5.90934698 9.18130604 -5.34885565 9.69729175 -1.4375 11.6875 C2.9602649 13.9602649 2.9602649 13.9602649 4 15 C4.50781969 20.16283349 4.50781969 20.16283349 4 23 C0.50865645 26.58322102 -2.37666778 28.15488519 -7.3125 28.3125 C-10.93329378 28.29498003 -11.89229757 28.07033628 -15.0625 26 C-15.701875 25.34 -16.34125 24.68 -17 24 C-16.67 22.68 -16.34 21.36 -16 20 C-11.25 20.75 -11.25 20.75 -9 23 C-5.91652174 23.16681109 -5.91652174 23.16681109 -3 23 C-2.67 21.35 -2.34 19.7 -2 18 C-2.62648438 17.66226563 -3.25296875 17.32453125 -3.8984375 16.9765625 C-4.71570313 16.53054688 -5.53296875 16.08453125 -6.375 15.625 C-7.59316406 14.96371094 -7.59316406 14.96371094 -8.8359375 14.2890625 C-11 13 -11 13 -13 11 C-13 7.625 -13 7.625 -12 4 C-8.12586882 0.48625312 -5.2008224 -0.69344299 0 0 Z " fill="#7B8B78" transform="translate(579,626)"/>
<path d="M0 0 C2.90365755 0.31390892 4.60838706 0.67365588 6.875 2.5625 C10.00967698 4.68301678 12.29717147 4.38977142 16 4 C18.62387135 2.60907108 18.62387135 2.60907108 21 1 C23.6875 0.1875 23.6875 0.1875 26 0 C26.66 0.66 27.32 1.32 28 2 C27.89854741 5.04357771 27.00874292 5.99150688 24.8125 8.125 C19.70767673 11.52821551 15.1120393 12.63227993 9 12 C4.76158614 10.41254979 0.94031276 8.51918683 -2 5 C-1.74853421 2.86254078 -1.54074221 1.54074221 0 0 Z " fill="#7A8B77" transform="translate(408,656)"/>
<path d="M0 0 C2.9375 1.75 2.9375 1.75 5 4 C5.33 5.32 5.66 6.64 6 8 C-0.93 8 -7.86 8 -15 8 C-13 3 -13 3 -10.875 1.1875 C-7.1234861 -0.36203835 -4.00188454 -0.73569999 0 0 Z " fill="#EEF0EE" transform="translate(387,626)"/>
<path d="M0 0 C0.99 0 1.98 0 3 0 C4.17704902 9.41639218 -0.01863187 16.72241064 -4 25 C-4.33 25 -4.66 25 -5 25 C-5.08172936 22.4784979 -5.14083373 19.95970083 -5.1875 17.4375 C-5.22520508 16.38079102 -5.22520508 16.38079102 -5.26367188 15.30273438 C-5.33544454 10.11117805 -4.40475155 6.61735588 -2 2 C-1.34 1.34 -0.68 0.68 0 0 Z " fill="#F7F8F7" transform="translate(679,607)"/>
<path d="M0 0 C5.11365014 1.0681847 10.07227969 2.23107476 15 4 C15.1875 6.375 15.1875 6.375 15 9 C12 11 12 11 8.5 10.875 C5 10 5 10 3.0625 7.9375 C2.711875 7.298125 2.36125 6.65875 2 6 C1.071875 6.4640625 1.071875 6.4640625 0.125 6.9375 C-1.25 7.625 -2.625 8.3125 -4 9 C-2.80023567 5.91489173 -1.49997444 2.94952958 0 0 Z " fill="#F6F7F6" transform="translate(730,639)"/>
<path d="M0 0 C0.33 1.65 0.66 3.3 1 5 C-1.75924185 6.80411967 -2.88972103 7.0127245 -6.25 6.625 C-7.1575 6.41875 -8.065 6.2125 -9 6 C-9 4.68 -9 3.36 -9 2 C-5.5647952 -0.29013653 -4.014669 -0.17842973 0 0 Z " fill="#F0F2F0" transform="translate(714,633)"/>
<path d="M0 0 C1.67542976 0.28604898 3.34385343 0.61781233 5 1 C5 2.65 5 4.3 5 6 C3.34385343 6.38218767 1.67542976 6.71395102 0 7 C-1 6 -1 6 -1.125 3.5 C-1 1 -1 1 0 0 Z " fill="#788975" transform="translate(652,614)"/>
<path d="M0 0 C0.99 0.66 1.98 1.32 3 2 C2.67 3.32 2.34 4.64 2 6 C0.68 6 -0.64 6 -2 6 C-2.33 4.68 -2.66 3.36 -3 2 C-2.01 1.34 -1.02 0.68 0 0 Z " fill="#CBD1CA" transform="translate(753,648)"/>
</svg>
